<svg width="75" height="25" viewBox="0 0 75 25" fill="none" xmlns="http://www.w3.org/2000/svg">
<path style="mix-blend-mode:screen" d="M37.1666 25C57.6012 25 74.1666 19.4036 74.1666 12.5C74.1666 5.59644 57.6012 0 37.1666 0C16.7321 0 0.166626 5.59644 0.166626 12.5C0.166626 19.4036 16.7321 25 37.1666 25Z" fill="url(#paint0_radial_1_1677)"/>
<path d="M36.857 21.1903C52.0197 21.1903 64.3115 17.4047 64.3115 12.735C64.3115 8.06523 52.0197 4.27966 36.857 4.27966C21.6943 4.27966 9.40247 8.06523 9.40247 12.735C9.40247 17.4047 21.6943 21.1903 36.857 21.1903Z" fill="url(#paint1_radial_1_1677)"/>
<path style="mix-blend-mode:screen" d="M61.7117 14.3987C64.794 10.022 56.1779 5.67636 42.467 4.69243C28.7561 3.70851 15.1425 6.4589 12.0602 10.8356C8.97786 15.2123 17.594 19.558 31.3049 20.5419C45.0158 21.5258 58.6294 18.7754 61.7117 14.3987Z" fill="url(#paint2_radial_1_1677)"/>
<g style="mix-blend-mode:multiply" opacity="0.1">
<path d="M17.4942 13.3739C26.364 12.7663 20.2474 15.9893 20.2474 15.9893L29.7999 14.8763C32.657 14.5435 35.5911 14.2701 38.5793 14.0671C43.0007 13.766 49.4067 13.2385 48.0821 12.7787C46.0975 12.0896 47.0378 11.094 36.0522 11.7554C25.0666 12.4169 36.4591 9.64679 41.2014 9.64679C42.4989 9.64679 32.11 10.4104 34.5513 11.1506C36.9925 11.8894 46.9383 9.52665 50.6861 10.3994C50.6861 10.3994 45.4872 10.5264 46.328 11.5069C47.1689 12.4873 53.6699 12.9499 58.792 11.0608C63.9141 9.17176 45.9483 9.64817 45.9483 9.64817C45.9483 9.64817 54.8181 7.2951 59.1762 8.88729C60.9439 9.53356 62.2187 9.75312 63.1093 9.78764C61.9384 8.83896 60.216 7.95518 58.0098 7.18325C55.1798 6.76345 51.5903 6.7745 47.4402 7.95518C36.9247 10.9476 25.0711 9.66751 31.7257 8.0767C38.3759 6.48589 44.2665 6.93192 44.2665 6.93192C44.2665 6.93192 33.0277 7.73285 34.6326 8.46473C36.2375 9.19523 51.6807 7.62928 49.7729 6.2898C47.8606 4.95032 31.1923 6.2898 31.1923 6.2898C31.1923 6.2898 38.1182 6.08542 35.3831 6.77726C32.648 7.46772 20.2609 8.38878 22.0195 9.58741C23.7781 10.7847 34.2438 10.0721 34.2438 10.0721C34.2438 10.0721 23.977 13.1446 35.3831 12.1863C46.7937 11.2293 48.2449 12.4666 45.4917 12.8864C42.7385 13.3062 17.2772 15.8374 24.5421 11.7582C24.5421 11.7582 11.7663 14.2066 16.0113 11.1534C20.2609 8.09879 13.8368 9.87188 13.8368 9.87188C13.8368 9.87188 19.5105 5.92386 22.2456 7.11834C24.9807 8.31283 17.8875 8.64977 17.8875 8.64977C17.8875 8.64977 24.0042 8.87072 28.6697 6.48727C31.5811 5.00003 27.9056 4.97793 24.7365 5.17264C18.9634 6.04676 14.1488 7.534 11.4589 9.49213C10.2789 10.3483 9.6008 11.2293 9.37024 12.1076C11.3368 11.6049 13.9182 10.8786 13.9182 10.8786C13.9182 10.8786 8.64238 13.9842 17.5123 13.378L17.4942 13.3739Z" fill="#FF1E00"/>
</g>
<path style="mix-blend-mode:screen" d="M62.3656 13.2919C65.4456 8.91503 56.8269 4.56986 43.1151 3.5867C29.4033 2.60354 15.7908 5.35469 12.7108 9.73157C9.63077 14.1084 18.2495 18.4536 31.9613 19.4368C45.6731 20.4199 59.2856 17.6688 62.3656 13.2919Z" fill="url(#paint3_radial_1_1677)"/>
<path style="mix-blend-mode:screen" opacity="0.38" d="M62.0285 13.5469C56.5678 15.5479 44.3133 8.92504 27.4928 12.4671C10.6723 16.0105 7.6006 10.0035 17.9226 7.13124C25.9892 4.88726 33.6131 3.93995 46.7762 5.2891C59.9392 6.63687 65.6629 12.2144 62.0285 13.5469Z" fill="url(#paint4_linear_1_1677)"/>
<path style="mix-blend-mode:screen" opacity="0.38" d="M11.6227 11.6011C17.2672 9.64568 28.9254 16.3652 46.0712 12.9613C63.2216 9.55731 65.7462 15.5864 55.1587 18.373C46.8835 20.5507 39.1714 21.4345 26.1286 19.9804C13.0858 18.5249 7.86589 12.9046 11.6227 11.6011Z" fill="url(#paint5_linear_1_1677)"/>
<g style="mix-blend-mode:multiply" opacity="0.1">
<path d="M56.2559 12.0803C47.3861 12.6879 53.5027 9.46488 53.5027 9.46488L43.9502 10.5779C41.0931 10.9107 38.159 11.1841 35.1708 11.3871C30.7494 11.6881 24.3434 12.2157 25.668 12.6755C27.6526 13.3646 26.7123 14.3602 37.6979 13.6987C48.6835 13.0373 37.291 15.8074 32.5487 15.8074C31.2512 15.8074 41.6401 15.0438 39.1988 14.3036C36.7576 13.5648 26.8118 15.9275 23.064 15.0548C23.064 15.0548 28.2629 14.9278 27.4221 13.9473C26.5812 12.9669 20.0802 12.5043 14.9581 14.3933C9.83604 16.2824 27.8018 15.806 27.8018 15.806C27.8018 15.806 18.9319 18.1591 14.5739 16.5669C12.8062 15.9206 11.5314 15.7011 10.6407 15.6665C11.8116 16.6152 13.5341 17.499 15.7402 18.2709C18.5703 18.6907 22.1598 18.6797 26.3099 17.499C36.8254 14.5066 48.679 15.7867 42.0244 17.3775C35.3742 18.9683 29.4836 18.5223 29.4836 18.5223C29.4836 18.5223 40.7224 17.7213 39.1175 16.9895C37.5126 16.259 22.0694 17.8249 23.9772 19.1644C25.8895 20.5039 42.5578 19.1644 42.5578 19.1644C42.5578 19.1644 35.6319 19.3688 38.367 18.6769C41.1021 17.9865 53.4892 17.0654 51.7306 15.8668C49.972 14.6695 39.5062 15.3821 39.5062 15.3821C39.5062 15.3821 49.7731 12.3096 38.367 13.2679C26.9564 14.2249 25.5052 12.9876 28.2584 12.5678C31.0116 12.148 56.4729 9.61678 49.208 13.696C49.208 13.696 61.9838 11.2476 57.7388 14.3008C53.4937 17.354 59.9133 15.5823 59.9133 15.5823C59.9133 15.5823 54.2396 19.5303 51.5045 18.3358C48.7694 17.1414 55.8626 16.8044 55.8626 16.8044C55.8626 16.8044 49.7459 16.5835 45.0804 18.9669C42.169 20.4542 45.8445 20.4763 49.0136 20.2815C54.7867 19.4074 59.6013 17.9202 62.2912 15.9621C63.4666 15.1059 64.1493 14.2249 64.3799 13.3466C62.4133 13.8493 59.8319 14.5756 59.8319 14.5756C59.8319 14.5756 65.1077 11.47 56.2378 12.0762L56.2559 12.0803Z" fill="#FF1E00"/>
</g>
<g opacity="0.71">
<path d="M19.0192 17.2144C14.5056 17.6315 32.2038 18.9005 35.2683 18.4504C38.3566 18.0002 22.8202 16.8637 19.0192 17.2144Z" fill="#FF7900"/>
<path style="mix-blend-mode:screen" d="M34.7023 17.5222C38.8536 18.6449 38.8101 19.7372 34.5936 19.9637C30.3772 20.1888 23.6069 19.4624 19.4448 18.3397C15.2935 17.217 15.337 16.1247 19.5535 15.8983C23.7699 15.6732 30.5402 16.3995 34.7023 17.5222Z" fill="url(#paint6_radial_1_1677)"/>
</g>
<g opacity="0.71">
<path d="M18.0941 14.9208C7.67269 15.0989 20.1628 17.4741 28.9059 17.1758C37.6489 16.8775 26.8762 14.7703 18.0941 14.9208Z" fill="#FF7900"/>
<path style="mix-blend-mode:screen" d="M27.5314 19.3039C32.651 19.0431 34.8457 17.4342 32.4335 15.7105C30.0213 13.9867 23.9155 12.8008 18.7959 13.0617C13.6763 13.3225 11.4815 14.9313 13.8937 16.655C16.306 18.3788 22.4118 19.5647 27.5314 19.3039Z" fill="url(#paint7_radial_1_1677)"/>
</g>
<path d="M22.5501 12.2841H26.3161V13.8381H22.5501V12.2841ZM31.3622 9.44211C31.1382 9.71277 30.9048 10.0021 30.6622 10.3101C30.4288 10.6181 30.2002 10.9401 29.9762 11.2761C29.7522 11.6121 29.5375 11.9574 29.3322 12.3121C29.1268 12.6574 28.9402 13.0028 28.7722 13.3481H31.3622V9.44211ZM33.0142 7.35611V13.3481H34.1062V14.7341H33.0142V17.0581H31.3622V14.7341H27.1062V13.5301C27.2928 13.1194 27.5402 12.6481 27.8482 12.1161C28.1655 11.5841 28.5155 11.0381 28.8982 10.4781C29.2808 9.91811 29.6868 9.36744 30.1162 8.82611C30.5455 8.28477 30.9748 7.79477 31.4042 7.35611H33.0142ZM41.3352 9.87611C41.3352 10.2121 41.2652 10.5434 41.1252 10.8701C40.9852 11.1874 40.8032 11.5001 40.5792 11.8081C40.3645 12.1068 40.1172 12.4008 39.8372 12.6901C39.5572 12.9701 39.2772 13.2454 38.9972 13.5161C38.8479 13.6561 38.6799 13.8241 38.4932 14.0201C38.3065 14.2161 38.1292 14.4121 37.9612 14.6081C37.7932 14.8041 37.6485 14.9954 37.5272 15.1821C37.4059 15.3594 37.3405 15.5088 37.3312 15.6301H41.6432V17.0581H35.4692C35.4599 16.9834 35.4552 16.8948 35.4552 16.7921C35.4552 16.6801 35.4552 16.5961 35.4552 16.5401C35.4552 16.0921 35.5252 15.6814 35.6652 15.3081C35.8145 14.9254 36.0059 14.5708 36.2392 14.2441C36.4725 13.9174 36.7339 13.6094 37.0232 13.3201C37.3125 13.0308 37.6019 12.7461 37.8912 12.4661C38.1152 12.2514 38.3299 12.0414 38.5352 11.8361C38.7405 11.6308 38.9179 11.4301 39.0672 11.2341C39.2259 11.0288 39.3519 10.8234 39.4452 10.6181C39.5385 10.4034 39.5852 10.1841 39.5852 9.96011C39.5852 9.47477 39.4452 9.12944 39.1652 8.92411C38.8852 8.71877 38.5445 8.6161 38.1432 8.6161C37.8819 8.6161 37.6392 8.65344 37.4152 8.72811C37.1912 8.80277 36.9905 8.89144 36.8132 8.9941C36.6452 9.09677 36.4959 9.20411 36.3652 9.31611C36.2345 9.41877 36.1365 9.50277 36.0712 9.56811L35.2312 8.37811C35.6232 8.00477 36.0805 7.70611 36.6032 7.48211C37.1352 7.24877 37.7045 7.1321 38.3112 7.1321C39.3472 7.1321 40.1079 7.37944 40.5932 7.87411C41.0879 8.35944 41.3352 9.02677 41.3352 9.87611ZM47.9202 9.7921C47.9202 10.6414 47.7009 11.2948 47.2622 11.7521C46.8329 12.2094 46.2682 12.4381 45.5682 12.4381C45.2229 12.4381 44.9056 12.3821 44.6162 12.2701C44.3269 12.1488 44.0796 11.9761 43.8742 11.7521C43.6689 11.5281 43.5056 11.2528 43.3842 10.9261C43.2722 10.5901 43.2162 10.2121 43.2162 9.7921C43.2162 8.93344 43.4309 8.28011 43.8602 7.8321C44.2989 7.37477 44.8682 7.14611 45.5682 7.14611C46.2682 7.14611 46.8329 7.37477 47.2622 7.8321C47.7009 8.28011 47.9202 8.93344 47.9202 9.7921ZM46.5902 9.7921C46.5902 9.29744 46.4969 8.92877 46.3102 8.6861C46.1329 8.43411 45.8856 8.30811 45.5682 8.30811C45.2509 8.30811 45.0036 8.43411 44.8262 8.6861C44.6489 8.92877 44.5602 9.29744 44.5602 9.7921C44.5602 10.2868 44.6489 10.6601 44.8262 10.9121C45.0036 11.1548 45.2509 11.2761 45.5682 11.2761C45.8856 11.2761 46.1329 11.1548 46.3102 10.9121C46.4969 10.6601 46.5902 10.2868 46.5902 9.7921ZM50.7622 7.35611H52.3722L46.8982 17.0581H45.2882L50.7622 7.35611ZM54.4582 14.6361C54.4582 15.4854 54.2389 16.1388 53.8002 16.5961C53.3709 17.0534 52.8062 17.2821 52.1062 17.2821C51.7609 17.2821 51.4436 17.2214 51.1542 17.1001C50.8649 16.9881 50.6176 16.8201 50.4122 16.5961C50.2069 16.3721 50.0436 16.0968 49.9222 15.7701C49.8102 15.4341 49.7542 15.0561 49.7542 14.6361C49.7542 13.7774 49.9689 13.1241 50.3982 12.6761C50.8369 12.2188 51.4062 11.9901 52.1062 11.9901C52.8062 11.9901 53.3709 12.2188 53.8002 12.6761C54.2389 13.1241 54.4582 13.7774 54.4582 14.6361ZM53.1282 14.6361C53.1282 14.1414 53.0349 13.7728 52.8482 13.5301C52.6709 13.2781 52.4236 13.1521 52.1062 13.1521C51.7889 13.1521 51.5416 13.2781 51.3642 13.5301C51.1869 13.7728 51.0982 14.1414 51.0982 14.6361C51.0982 15.1308 51.1869 15.5041 51.3642 15.7561C51.5416 15.9988 51.7889 16.1201 52.1062 16.1201C52.4236 16.1201 52.6709 15.9988 52.8482 15.7561C53.0349 15.5041 53.1282 15.1308 53.1282 14.6361Z" fill="#422B2B"/>
<defs>
<radialGradient id="paint0_radial_1_1677" cx="0" cy="0" r="1" gradientUnits="userSpaceOnUse" gradientTransform="translate(37.1666 12.5) scale(37 12.5)">
<stop stop-color="#FF0000"/>
<stop offset="0.09" stop-color="#F50000"/>
<stop offset="0.23" stop-color="#DA0000"/>
<stop offset="0.42" stop-color="#AE0000"/>
<stop offset="0.64" stop-color="#710000"/>
<stop offset="0.89" stop-color="#250000"/>
<stop offset="1"/>
</radialGradient>
<radialGradient id="paint1_radial_1_1677" cx="0" cy="0" r="1" gradientUnits="userSpaceOnUse" gradientTransform="translate(36.857 12.735) scale(27.4545 8.45531)">
<stop offset="0.58" stop-color="#FF7D00"/>
<stop offset="0.73" stop-color="#FF5700"/>
<stop offset="0.88" stop-color="#FF2900"/>
<stop offset="1" stop-color="#FF0000"/>
</radialGradient>
<radialGradient id="paint2_radial_1_1677" cx="0" cy="0" r="1" gradientUnits="userSpaceOnUse" gradientTransform="translate(36.8851 12.6178) scale(25.4454 8.12252)">
<stop stop-color="#FF00FF"/>
<stop offset="0.1" stop-color="#D000D0"/>
<stop offset="0.23" stop-color="#990099"/>
<stop offset="0.37" stop-color="#6A006A"/>
<stop offset="0.5" stop-color="#440044"/>
<stop offset="0.63" stop-color="#260026"/>
<stop offset="0.76" stop-color="#110011"/>
<stop offset="0.88" stop-color="#040004"/>
<stop offset="1"/>
</radialGradient>
<radialGradient id="paint3_radial_1_1677" cx="0" cy="0" r="1" gradientUnits="userSpaceOnUse" gradientTransform="translate(37.5351 11.513) scale(25.4461 8.12252)">
<stop stop-color="#FFFF00"/>
<stop offset="0.1" stop-color="#D0D000"/>
<stop offset="0.23" stop-color="#999900"/>
<stop offset="0.37" stop-color="#6A6A00"/>
<stop offset="0.5" stop-color="#444400"/>
<stop offset="0.63" stop-color="#262600"/>
<stop offset="0.76" stop-color="#111100"/>
<stop offset="0.88" stop-color="#040400"/>
<stop offset="1"/>
</radialGradient>
<linearGradient id="paint4_linear_1_1677" x1="55.9955" y1="7.0689" x2="46.6515" y2="27.7565" gradientUnits="userSpaceOnUse">
<stop stop-color="#FFFF00"/>
<stop offset="0.1" stop-color="#D0D000"/>
<stop offset="0.23" stop-color="#999900"/>
<stop offset="0.37" stop-color="#6A6A00"/>
<stop offset="0.5" stop-color="#444400"/>
<stop offset="0.63" stop-color="#262600"/>
<stop offset="0.76" stop-color="#111100"/>
<stop offset="0.88" stop-color="#040400"/>
<stop offset="1"/>
</linearGradient>
<linearGradient id="paint5_linear_1_1677" x1="23.322" y1="19.6023" x2="26.1244" y2="5.7159" gradientUnits="userSpaceOnUse">
<stop stop-color="#FF00FF"/>
<stop offset="0.1" stop-color="#D000D0"/>
<stop offset="0.23" stop-color="#990099"/>
<stop offset="0.37" stop-color="#6A006A"/>
<stop offset="0.5" stop-color="#440044"/>
<stop offset="0.63" stop-color="#260026"/>
<stop offset="0.76" stop-color="#110011"/>
<stop offset="0.88" stop-color="#040004"/>
<stop offset="1"/>
</linearGradient>
<radialGradient id="paint6_radial_1_1677" cx="0" cy="0" r="1" gradientUnits="userSpaceOnUse" gradientTransform="translate(28.5374 17.8454) rotate(-3.06805) scale(7.59265 2.4364)">
<stop stop-color="#FFC700"/>
<stop offset="0.1" stop-color="#D0A200"/>
<stop offset="0.23" stop-color="#997800"/>
<stop offset="0.37" stop-color="#6A5300"/>
<stop offset="0.5" stop-color="#443500"/>
<stop offset="0.63" stop-color="#261D00"/>
<stop offset="0.76" stop-color="#110D00"/>
<stop offset="0.88" stop-color="#040300"/>
<stop offset="1"/>
</radialGradient>
<radialGradient id="paint7_radial_1_1677" cx="0" cy="0" r="1" gradientUnits="userSpaceOnUse" gradientTransform="translate(-51.5355 12.1558) rotate(3.01676) scale(10.211 3.03493)">
<stop stop-color="#FFC700"/>
<stop offset="0.1" stop-color="#D0A200"/>
<stop offset="0.23" stop-color="#997800"/>
<stop offset="0.37" stop-color="#6A5300"/>
<stop offset="0.5" stop-color="#443500"/>
<stop offset="0.63" stop-color="#261D00"/>
<stop offset="0.76" stop-color="#110D00"/>
<stop offset="0.88" stop-color="#040300"/>
<stop offset="1"/>
</radialGradient>
</defs>
</svg>
